<svg xmlns="http://www.w3.org/2000/svg"  viewBox="0 0 50 50" width="50px" height="50px"><path d="M 6 4 C 5.4777778 4 4.9453899 4.1913289 4.5683594 4.5683594 C 4.1913289 4.9453899 4 5.4777778 4 6 L 4 44 C 4 44.522222 4.1913289 45.05461 4.5683594 45.431641 C 4.9453899 45.808671 5.4777778 46 6 46 L 44 46 C 44.522222 46 45.05461 45.808671 45.431641 45.431641 C 45.808671 45.05461 46 44.522222 46 44 L 46 6 C 46 5.4777778 45.808671 4.9453899 45.431641 4.5683594 C 45.05461 4.1913289 44.522222 4 44 4 L 6 4 z M 6 6 L 44 6 L 44 44 L 6 44 L 6 6 z M 17.900391 14 L 13 36 L 15.400391 36 L 16.800781 29.599609 L 21.599609 29.599609 L 23 36 L 25.400391 36 L 20.599609 14 L 17.900391 14 z M 19.199219 16.5 L 19.300781 16.5 C 19.600781 18.1 19.899219 19.900391 20.199219 21.400391 L 21.300781 27 L 17.199219 27 L 18.300781 21.5 C 18.600781 20 18.899219 18.1 19.199219 16.5 z M 32.5 20 C 28.2 20 27 24.5 27 27 C 27 27.6 26.700391 31.699609 28.900391 34.099609 C 30.000391 35.399609 31.500391 36 33.400391 36 C 35.400391 36 37.400391 35.1 37.400391 35 L 36.5 33.199219 C 36.5 33.199219 34.900391 34 33.400391 34 C 32.100391 34 31.100391 33.600781 30.400391 32.800781 C 29.200391 31.500781 29 29.299609 29 28.099609 L 38 28.099609 L 38 27.099609 C 38 24.599609 36.8 20 32.5 20 z M 32.5 22 C 35 22 35.700391 24.599609 35.900391 26.099609 L 29.099609 26.099609 C 29.299609 24.599609 30 22 32.5 22 z"/></svg>